<svg width="1125" height="285" viewBox="0 0 1125 285" fill="none" xmlns="http://www.w3.org/2000/svg">
<g clip-path="url(#clip0_51_4973)">
<path d="M245.837 284.405C239.645 284.405 233.473 282.637 227.929 279.133C194.927 258.233 161.768 235.545 129.707 213.62C107.301 198.296 84.1423 182.459 61.2761 167.386C52.6046 161.674 47.4058 152.03 47.3744 141.601C47.343 131.214 52.4476 121.591 61.0251 115.858C84.0272 100.482 107.28 85.377 129.77 70.7536C161.716 49.9899 194.749 28.5149 227.532 5.99395C238.055 -1.2341 251.057 -1.96632 262.302 4.04834C273.452 10.0107 280.346 21.6425 280.314 34.4041L279.666 250.221C279.624 262.867 273.065 274.039 262.114 280.116C256.967 282.972 251.392 284.394 245.837 284.394" fill="#101D2A"/>
<path d="M30.1885 258.045C24.9374 258.045 19.6655 256.706 14.8956 254.017C5.53362 248.745 -0.0312488 239.363 0.000132015 228.902L0.564987 55.3034C0.596368 45.1046 6.02525 35.8682 15.0734 30.5858C24.8015 24.9163 36.8517 24.9477 46.5275 30.659L187.407 113.766C196.235 118.975 201.612 128.044 201.789 138.013C201.967 147.95 196.936 157.166 188.337 162.668L46.8936 253.149C41.8099 256.402 36.0044 258.045 30.1885 258.045Z" fill="#F7951E"/>
</g>
<path d="M379.28 253V64.4128H413.731L472.17 170.062L491.819 210.383H493.095C492.075 200.686 491.054 190.223 490.033 178.994C489.012 167.596 488.502 156.622 488.502 146.074V64.4128H520.401V253H485.95L427.766 147.095L408.116 107.285H407.096C407.776 117.153 408.627 127.615 409.647 138.674C410.668 149.562 411.179 160.28 411.179 170.828V253H379.28ZM587.309 256.573C578.973 256.573 571.657 254.786 565.363 251.214C559.238 247.641 554.389 242.792 550.817 236.668C547.244 230.373 545.458 223.142 545.458 214.976C545.458 199.665 552.093 187.926 565.363 179.76C578.633 171.423 599.729 165.639 628.65 162.407C628.48 157.303 627.545 152.709 625.843 148.626C624.312 144.373 621.675 141.056 617.932 138.674C614.36 136.122 609.426 134.846 603.131 134.846C595.986 134.846 589.096 136.207 582.461 138.929C575.826 141.651 569.361 144.969 563.066 148.881L551.072 126.425C556.346 123.192 561.96 120.215 567.915 117.493C574.039 114.601 580.504 112.304 587.309 110.603C594.285 108.731 601.515 107.795 609.001 107.795C620.91 107.795 630.777 110.177 638.603 114.941C646.429 119.704 652.298 126.68 656.211 135.867C660.124 144.883 662.081 155.942 662.081 169.042V253H634.775L632.223 237.433H631.202C624.908 242.707 618.102 247.216 610.787 250.958C603.471 254.701 595.646 256.573 587.309 256.573ZM598.027 230.033C603.642 230.033 608.83 228.757 613.594 226.205C618.528 223.483 623.547 219.74 628.65 214.976V183.332C615.891 184.864 605.768 186.99 598.283 189.712C590.797 192.434 585.438 195.752 582.205 199.665C579.143 203.408 577.612 207.661 577.612 212.424C577.612 218.719 579.483 223.228 583.226 225.95C587.139 228.672 592.073 230.033 598.027 230.033ZM732.914 256.573C722.026 256.573 713.265 254.446 706.63 250.193C700.165 245.77 695.401 239.73 692.339 232.074C689.447 224.248 688.001 215.232 688.001 205.024V137.908H667.84V112.899L690.042 111.368L693.615 72.5789H721.431V111.368H757.413V137.908H721.431V205.279C721.431 213.445 723.047 219.655 726.279 223.908C729.682 227.991 734.786 230.033 741.591 230.033C743.973 230.033 746.44 229.692 748.992 229.012C751.714 228.331 754.095 227.566 756.137 226.715L761.751 251.214C758.008 252.405 753.67 253.595 748.736 254.786C743.973 255.977 738.699 256.573 732.914 256.573ZM774.563 253V111.368H807.993V253H774.563ZM791.405 86.6145C785.281 86.6145 780.432 84.9132 776.859 81.5107C773.287 77.938 771.5 73.2594 771.5 67.4751C771.5 61.8608 773.287 57.3524 776.859 53.9499C780.432 50.3772 785.281 48.5908 791.405 48.5908C797.19 48.5908 801.953 50.3772 805.696 53.9499C809.439 57.3524 811.31 61.8608 811.31 67.4751C811.31 73.2594 809.439 77.938 805.696 81.5107C801.953 84.9132 797.19 86.6145 791.405 86.6145ZM868.703 253L819.706 111.368H853.646L875.848 184.864C877.89 191.669 879.846 198.729 881.718 206.045C883.759 213.19 885.801 220.25 887.842 227.226H889.118C891.16 220.25 893.116 213.19 894.988 206.045C897.029 198.729 898.986 191.669 900.857 184.864L923.314 111.368H955.723L907.747 253H868.703ZM1024.84 256.573C1011.74 256.573 999.919 253.595 989.371 247.641C978.823 241.686 970.402 233.18 964.107 222.122C957.982 211.063 954.92 197.793 954.92 182.312C954.92 170.743 956.706 160.45 960.279 151.433C964.022 142.246 968.956 134.421 975.08 127.956C981.375 121.321 988.35 116.302 996.006 112.899C1003.83 109.497 1011.91 107.795 1020.25 107.795C1033.01 107.795 1043.73 110.688 1052.4 116.472C1061.08 122.086 1067.63 129.997 1072.05 140.205C1076.48 150.243 1078.69 161.896 1078.69 175.166C1078.69 178.399 1078.52 181.461 1078.18 184.353C1078.01 187.075 1077.67 189.372 1077.16 191.243H987.585C988.435 199.58 990.732 206.64 994.475 212.424C998.218 218.209 1002.98 222.717 1008.77 225.95C1014.72 229.012 1021.53 230.543 1029.18 230.543C1035.14 230.543 1040.75 229.692 1046.02 227.991C1051.3 226.12 1056.57 223.568 1061.85 220.335L1073.33 241.261C1066.69 245.684 1059.21 249.342 1050.87 252.234C1042.54 255.127 1033.86 256.573 1024.84 256.573ZM987.074 168.531H1050.11C1050.11 157.813 1047.64 149.392 1042.71 143.267C1037.77 136.973 1030.46 133.825 1020.76 133.825C1015.49 133.825 1010.47 135.186 1005.7 137.908C1000.94 140.46 996.857 144.288 993.454 149.392C990.222 154.496 988.095 160.876 987.074 168.531Z" fill="#101D2A"/>
<defs>
<clipPath id="clip0_51_4973">
<rect width="280.315" height="284.405" fill="white"/>
</clipPath>
</defs>
</svg>
